<svg xmlns="http://www.w3.org/2000/svg" xmlns:xlink="http://www.w3.org/1999/xlink" width="500" zoomAndPan="magnify" viewBox="0 0 375 374.999991" height="500" preserveAspectRatio="xMidYMid meet" version="1.0"><defs><clipPath id="b6f5e2bc67"><path d="M 156 104 L 295.589844 104 L 295.589844 221 L 156 221 Z M 156 104 " clip-rule="nonzero"/></clipPath></defs><path fill="#caddff" d="M 90.46875 138.984375 C 85.84375 149.167969 79.589844 170.546875 82.339844 194.789062 C 85.871094 225.886719 102.753906 248.511719 119.753906 262.289062 C 176.164062 308.007812 279.429688 278.472656 293.105469 235.40625 C 295.585938 227.59375 294.886719 220.058594 294.027344 210.785156 C 291.300781 181.292969 279.699219 170.359375 270.03125 139.046875 C 261.230469 110.550781 268.992188 108.835938 260.761719 96.167969 C 242.910156 68.6875 191.351562 67.257812 155.894531 80.433594 C 142.273438 85.496094 107.390625 101.738281 90.46875 138.984375 " fill-opacity="1" fill-rule="nonzero"/><path fill="#caddff" d="M 178.691406 114.339844 C 178.691406 107.109375 175.730469 96.339844 161.46875 96.992188 C 162.269531 87.835938 154.46875 75.25 137.464844 76.398438 C 129.257812 76.953125 127.574219 83.394531 126.683594 83.074219 C 115.238281 78.929688 101.269531 88.671875 104.382812 103.398438 C 98.023438 104.101562 92.75 109.378906 92.898438 116.511719 C 92.996094 121.148438 95.628906 124.710938 99.898438 124.710938 L 169.09375 124.710938 C 174.253906 124.710938 178.554688 120.285156 178.6875 114.6875 C 178.691406 114.570312 178.691406 114.457031 178.691406 114.339844 " fill-opacity="1" fill-rule="nonzero"/><path fill="#ffffff" d="M 180.699219 115.597656 C 180.699219 108.550781 176.523438 94.726562 162.558594 95.367188 C 159.527344 81.472656 153.117188 77.410156 141.710938 77.304688 C 130.574219 77.203125 128.523438 85.367188 127.664062 85.011719 C 115.679688 80.082031 104.566406 91.242188 107.003906 104.191406 C 100.773438 104.875 95.914062 110.554688 95.914062 117.464844 C 95.914062 117.496094 95.914062 117.527344 95.914062 117.558594 C 95.945312 122.074219 99.371094 125.703125 103.550781 125.703125 L 171.300781 125.703125 C 176.355469 125.703125 180.566406 121.394531 180.695312 115.9375 C 180.699219 115.824219 180.699219 115.710938 180.699219 115.597656 " fill-opacity="1" fill-rule="nonzero"/><path fill="#5479f7" d="M 97.582031 111.152344 C 97.519531 111.152344 97.457031 111.136719 97.398438 111.105469 C 97.210938 111.003906 97.140625 110.769531 97.242188 110.582031 C 99.21875 106.914062 102.675781 104.421875 106.550781 103.859375 C 105.449219 97.25 107.746094 90.738281 112.605469 86.78125 C 116.921875 83.269531 122.414062 82.480469 127.695312 84.609375 C 127.824219 84.476562 128.058594 84.132812 128.269531 83.824219 C 129.691406 81.734375 133.019531 76.847656 141.714844 76.917969 C 147.886719 76.976562 152.273438 78.230469 155.519531 80.863281 C 159.007812 83.695312 161.34375 88.179688 162.867188 94.96875 C 167.75 94.820312 171.835938 96.398438 175.011719 99.660156 C 175.160156 99.8125 175.160156 100.058594 175.003906 100.207031 C 174.851562 100.355469 174.609375 100.351562 174.460938 100.199219 C 171.371094 97.027344 167.371094 95.535156 162.578125 95.75 C 162.390625 95.761719 162.222656 95.632812 162.183594 95.449219 C 159.382812 82.613281 153.832031 77.800781 141.707031 77.691406 C 141.640625 77.691406 141.574219 77.691406 141.503906 77.691406 C 133.378906 77.691406 130.363281 82.121094 128.90625 84.257812 C 128.351562 85.078125 128.011719 85.570312 127.519531 85.371094 C 122.472656 83.292969 117.214844 84.027344 113.09375 87.378906 C 108.355469 91.238281 106.164062 97.652344 107.382812 104.117188 C 107.402344 104.226562 107.375 104.335938 107.3125 104.421875 C 107.25 104.507812 107.152344 104.5625 107.042969 104.574219 C 103.257812 104.992188 99.847656 107.375 97.921875 110.949219 C 97.851562 111.078125 97.71875 111.152344 97.582031 111.152344 " fill-opacity="1" fill-rule="nonzero"/><path fill="#5479f7" d="M 151.855469 126.09375 L 120.960938 126.09375 C 120.746094 126.09375 120.574219 125.917969 120.574219 125.703125 C 120.574219 125.492188 120.746094 125.320312 120.960938 125.320312 L 151.855469 125.320312 C 152.070312 125.320312 152.242188 125.492188 152.242188 125.703125 C 152.242188 125.917969 152.070312 126.09375 151.855469 126.09375 " fill-opacity="1" fill-rule="nonzero"/><path fill="#99b9ff" d="M 242.046875 117.316406 C 237.984375 117.484375 234.550781 114.324219 234.382812 110.257812 C 234.214844 106.1875 237.371094 102.753906 241.4375 102.585938 C 245.503906 102.417969 248.9375 105.578125 249.105469 109.648438 C 249.273438 113.714844 246.113281 117.148438 242.046875 117.316406 Z M 256.597656 110.769531 L 256.480469 107.90625 L 253.40625 107.347656 C 253.257812 106.6875 253.058594 106.050781 252.8125 105.441406 L 255.015625 103.230469 L 253.484375 100.8125 L 250.539062 101.863281 C 250.089844 101.375 249.597656 100.921875 249.074219 100.515625 L 249.878906 97.492188 L 247.34375 96.164062 L 245.320312 98.542969 C 244.691406 98.347656 244.039062 98.203125 243.375 98.113281 L 242.558594 95.09375 L 239.699219 95.210938 L 239.140625 98.289062 C 238.480469 98.433594 237.847656 98.632812 237.234375 98.878906 L 235.023438 96.671875 L 232.605469 98.207031 L 233.660156 101.152344 C 233.167969 101.605469 232.71875 102.09375 232.308594 102.621094 L 229.289062 101.8125 L 227.960938 104.351562 L 230.339844 106.371094 C 230.144531 107 230 107.652344 229.90625 108.320312 L 226.890625 109.132812 L 227.007812 111.996094 L 230.082031 112.554688 C 230.230469 113.210938 230.425781 113.851562 230.675781 114.460938 L 228.472656 116.671875 L 230.003906 119.089844 L 232.949219 118.039062 C 233.398438 118.527344 233.890625 118.980469 234.414062 119.386719 L 233.609375 122.410156 L 236.144531 123.738281 L 238.164062 121.359375 C 238.792969 121.554688 239.445312 121.699219 240.113281 121.789062 L 240.925781 124.808594 L 243.785156 124.691406 L 244.347656 121.613281 C 245.003906 121.46875 245.640625 121.269531 246.25 121.023438 L 248.460938 123.226562 L 250.878906 121.695312 L 249.828125 118.75 C 250.316406 118.300781 250.769531 117.808594 251.175781 117.285156 L 254.199219 118.089844 L 255.527344 115.550781 L 253.144531 113.53125 C 253.34375 112.902344 253.488281 112.25 253.578125 111.582031 L 256.597656 110.769531 " fill-opacity="1" fill-rule="nonzero"/><path fill="#5479f7" d="M 240.976562 102.191406 C 240.878906 102.191406 240.78125 102.195312 240.683594 102.199219 C 238.820312 102.277344 237.097656 103.074219 235.835938 104.449219 C 234.570312 105.820312 233.917969 107.601562 233.996094 109.464844 C 234.074219 111.332031 234.871094 113.050781 236.242188 114.316406 C 237.613281 115.578125 239.394531 116.234375 241.261719 116.15625 C 243.125 116.078125 244.847656 115.277344 246.109375 113.90625 C 247.371094 112.535156 248.023438 110.753906 247.949219 108.886719 C 247.871094 107.023438 247.074219 105.300781 245.699219 104.039062 C 244.402344 102.839844 242.734375 102.191406 240.976562 102.191406 Z M 240.964844 116.933594 C 239.011719 116.933594 237.164062 116.214844 235.71875 114.882812 C 234.195312 113.480469 233.308594 111.566406 233.222656 109.496094 C 233.136719 107.425781 233.863281 105.449219 235.265625 103.921875 C 236.667969 102.398438 238.578125 101.511719 240.648438 101.425781 C 242.722656 101.339844 244.699219 102.066406 246.222656 103.46875 C 247.746094 104.871094 248.632812 106.785156 248.71875 108.855469 C 248.804688 110.925781 248.082031 112.90625 246.675781 114.429688 C 245.273438 115.957031 243.363281 116.839844 241.292969 116.929688 C 241.179688 116.933594 241.074219 116.933594 240.964844 116.933594 Z M 237.394531 120.195312 C 237.429688 120.195312 237.46875 120.203125 237.507812 120.214844 C 238.113281 120.40625 238.746094 120.542969 239.390625 120.632812 C 239.546875 120.652344 239.671875 120.765625 239.710938 120.917969 L 240.445312 123.636719 L 242.6875 123.542969 L 243.195312 120.773438 C 243.222656 120.617188 243.339844 120.496094 243.492188 120.464844 C 244.128906 120.320312 244.746094 120.128906 245.332031 119.890625 C 245.476562 119.832031 245.640625 119.867188 245.75 119.976562 L 247.742188 121.960938 L 249.640625 120.761719 L 248.691406 118.105469 C 248.640625 117.957031 248.679688 117.796875 248.792969 117.691406 C 249.265625 117.257812 249.703125 116.777344 250.097656 116.269531 C 250.195312 116.148438 250.355469 116.097656 250.503906 116.136719 L 253.226562 116.859375 L 254.269531 114.871094 L 252.125 113.050781 C 252.003906 112.949219 251.957031 112.789062 252.003906 112.640625 C 252.195312 112.035156 252.335938 111.402344 252.425781 110.757812 C 252.445312 110.601562 252.554688 110.476562 252.707031 110.433594 L 255.425781 109.703125 L 255.332031 107.457031 L 252.5625 106.953125 C 252.410156 106.925781 252.289062 106.808594 252.253906 106.65625 C 252.113281 106.019531 251.917969 105.398438 251.679688 104.8125 C 251.625 104.671875 251.65625 104.503906 251.765625 104.394531 L 253.753906 102.402344 L 252.550781 100.507812 L 249.894531 101.453125 C 249.75 101.503906 249.585938 101.464844 249.480469 101.351562 C 249.046875 100.878906 248.570312 100.4375 248.0625 100.046875 C 247.941406 99.949219 247.886719 99.792969 247.929688 99.640625 L 248.652344 96.917969 L 246.664062 95.875 L 244.84375 98.019531 C 244.742188 98.140625 244.582031 98.183594 244.433594 98.140625 C 243.828125 97.949219 243.195312 97.808594 242.550781 97.71875 C 242.398438 97.699219 242.269531 97.589844 242.230469 97.4375 L 241.496094 94.71875 L 239.253906 94.808594 L 238.746094 97.582031 C 238.71875 97.734375 238.601562 97.855469 238.449219 97.890625 C 237.816406 98.03125 237.195312 98.226562 236.609375 98.464844 C 236.464844 98.519531 236.300781 98.488281 236.191406 98.378906 L 234.195312 96.390625 L 232.300781 97.59375 L 233.25 100.25 C 233.304688 100.394531 233.261719 100.558594 233.148438 100.664062 C 232.675781 101.097656 232.234375 101.578125 231.839844 102.082031 C 231.746094 102.203125 231.589844 102.257812 231.4375 102.21875 L 228.714844 101.492188 L 227.671875 103.480469 L 229.816406 105.304688 C 229.9375 105.40625 229.984375 105.566406 229.9375 105.714844 C 229.75 106.316406 229.605469 106.953125 229.519531 107.597656 C 229.496094 107.753906 229.386719 107.878906 229.238281 107.917969 L 226.515625 108.652344 L 226.609375 110.894531 L 229.382812 111.402344 C 229.53125 111.429688 229.65625 111.546875 229.6875 111.699219 C 229.828125 112.335938 230.023438 112.957031 230.261719 113.539062 C 230.320312 113.683594 230.285156 113.851562 230.175781 113.960938 L 228.191406 115.953125 L 229.390625 117.847656 L 232.046875 116.898438 C 232.191406 116.847656 232.355469 116.886719 232.460938 117.003906 C 232.894531 117.476562 233.371094 117.914062 233.878906 118.308594 C 234 118.402344 234.054688 118.5625 234.011719 118.714844 L 233.289062 121.4375 L 235.277344 122.480469 L 237.097656 120.332031 C 237.171875 120.246094 237.28125 120.195312 237.394531 120.195312 Z M 240.152344 124.421875 C 239.980469 124.421875 239.828125 124.304688 239.78125 124.136719 L 239.03125 121.359375 C 238.519531 121.28125 238.011719 121.167969 237.523438 121.027344 L 235.667969 123.214844 C 235.550781 123.351562 235.355469 123.390625 235.191406 123.304688 L 232.65625 121.976562 C 232.496094 121.894531 232.417969 121.710938 232.460938 121.535156 L 233.203125 118.757812 C 232.804688 118.433594 232.425781 118.085938 232.066406 117.714844 L 229.363281 118.679688 C 229.191406 118.738281 229 118.675781 228.90625 118.523438 L 227.371094 116.105469 C 227.273438 115.953125 227.296875 115.753906 227.421875 115.625 L 229.449219 113.59375 C 229.269531 113.117188 229.117188 112.621094 228.992188 112.117188 L 226.167969 111.601562 C 225.988281 111.566406 225.859375 111.417969 225.847656 111.234375 L 225.730469 108.375 C 225.722656 108.195312 225.84375 108.03125 226.015625 107.988281 L 228.789062 107.238281 C 228.871094 106.722656 228.984375 106.21875 229.125 105.730469 L 226.9375 103.871094 C 226.800781 103.753906 226.761719 103.558594 226.84375 103.398438 L 228.171875 100.859375 C 228.257812 100.699219 228.441406 100.621094 228.613281 100.667969 L 231.390625 101.40625 C 231.714844 101.007812 232.066406 100.625 232.4375 100.269531 L 231.46875 97.5625 C 231.410156 97.394531 231.472656 97.203125 231.628906 97.105469 L 234.046875 95.574219 C 234.195312 95.476562 234.398438 95.5 234.523438 95.625 L 236.558594 97.652344 C 237.035156 97.46875 237.527344 97.316406 238.03125 97.195312 L 238.546875 94.367188 C 238.582031 94.191406 238.730469 94.058594 238.914062 94.050781 L 241.773438 93.933594 C 241.957031 93.921875 242.113281 94.042969 242.160156 94.21875 L 242.910156 96.992188 C 243.421875 97.074219 243.929688 97.1875 244.417969 97.328125 L 246.277344 95.140625 C 246.394531 95.003906 246.589844 94.964844 246.75 95.046875 L 249.285156 96.375 C 249.445312 96.460938 249.527344 96.644531 249.480469 96.816406 L 248.738281 99.597656 C 249.136719 99.917969 249.519531 100.269531 249.875 100.640625 L 252.582031 99.675781 C 252.75 99.613281 252.941406 99.679688 253.039062 99.832031 L 254.570312 102.25 C 254.667969 102.402344 254.644531 102.601562 254.515625 102.730469 L 252.492188 104.761719 C 252.671875 105.238281 252.828125 105.730469 252.949219 106.238281 L 255.777344 106.753906 C 255.953125 106.785156 256.085938 106.9375 256.09375 107.117188 L 256.210938 109.976562 C 256.21875 110.160156 256.097656 110.320312 255.925781 110.367188 L 253.152344 111.113281 C 253.070312 111.628906 252.957031 112.136719 252.816406 112.625 L 255.003906 114.484375 C 255.140625 114.601562 255.179688 114.796875 255.097656 114.957031 L 253.769531 117.492188 C 253.683594 117.652344 253.503906 117.734375 253.328125 117.6875 L 250.550781 116.949219 C 250.222656 117.347656 249.875 117.726562 249.503906 118.082031 L 250.472656 120.792969 C 250.53125 120.960938 250.46875 121.148438 250.316406 121.246094 L 247.898438 122.78125 C 247.746094 122.875 247.546875 122.855469 247.417969 122.726562 L 245.386719 120.699219 C 244.910156 120.882812 244.414062 121.035156 243.910156 121.160156 L 243.394531 123.988281 C 243.363281 124.164062 243.210938 124.296875 243.027344 124.304688 L 240.167969 124.421875 C 240.164062 124.421875 240.160156 124.421875 240.152344 124.421875 " fill-opacity="1" fill-rule="nonzero"/><path fill="#99b9ff" d="M 207.589844 106.863281 C 201.855469 107.753906 196.484375 103.824219 195.597656 98.085938 C 194.707031 92.351562 198.636719 86.976562 204.371094 86.089844 C 210.105469 85.199219 215.480469 89.128906 216.367188 94.867188 C 217.257812 100.601562 213.328125 105.976562 207.589844 106.863281 Z M 227.164062 95.257812 L 226.539062 91.222656 L 222.089844 90.917969 C 221.777344 90.011719 221.394531 89.136719 220.945312 88.316406 L 223.71875 84.824219 L 221.15625 81.644531 L 217.15625 83.605469 C 216.4375 82.984375 215.671875 82.421875 214.859375 81.929688 L 215.519531 77.515625 L 211.710938 76.039062 L 209.226562 79.738281 C 208.304688 79.558594 207.359375 79.457031 206.398438 79.4375 L 204.761719 75.285156 L 200.730469 75.914062 L 200.425781 80.363281 C 199.515625 80.675781 198.644531 81.058594 197.820312 81.507812 L 194.335938 78.734375 L 191.152344 81.292969 L 193.117188 85.300781 C 192.492188 86.019531 191.933594 86.785156 191.4375 87.59375 L 187.027344 86.9375 L 185.550781 90.746094 L 189.25 93.230469 C 189.070312 94.152344 188.96875 95.097656 188.945312 96.058594 L 184.796875 97.695312 L 185.425781 101.730469 L 189.871094 102.035156 C 190.183594 102.941406 190.566406 103.8125 191.015625 104.640625 L 188.246094 108.128906 L 190.804688 111.308594 L 194.808594 109.347656 C 195.527344 109.96875 196.292969 110.53125 197.101562 111.023438 L 196.445312 115.4375 L 200.253906 116.914062 L 202.734375 113.214844 C 203.65625 113.394531 204.605469 113.496094 205.566406 113.515625 L 207.199219 117.667969 L 211.234375 117.042969 L 211.539062 112.589844 C 212.445312 112.277344 213.316406 111.894531 214.140625 111.445312 L 217.628906 114.21875 L 220.808594 111.660156 L 218.847656 107.652344 C 219.46875 106.933594 220.027344 106.167969 220.523438 105.359375 L 224.933594 106.015625 L 226.410156 102.207031 L 222.714844 99.722656 C 222.894531 98.800781 222.996094 97.855469 223.019531 96.894531 L 227.164062 95.257812 " fill-opacity="1" fill-rule="nonzero"/><path fill="#5479f7" d="M 204.886719 86.605469 C 204.367188 86.605469 203.839844 86.644531 203.3125 86.726562 C 200.644531 87.140625 198.292969 88.570312 196.695312 90.753906 C 195.097656 92.9375 194.449219 95.613281 194.863281 98.285156 C 195.277344 100.957031 196.707031 103.308594 198.890625 104.90625 C 201.074219 106.503906 203.746094 107.15625 206.417969 106.742188 C 211.933594 105.886719 215.726562 100.703125 214.871094 95.183594 C 214.457031 92.511719 213.023438 90.160156 210.84375 88.5625 C 209.089844 87.277344 207.019531 86.605469 204.886719 86.605469 Z M 204.84375 107.636719 C 202.546875 107.636719 200.320312 106.910156 198.433594 105.53125 C 196.082031 103.8125 194.542969 101.28125 194.097656 98.402344 C 193.179688 92.464844 197.257812 86.882812 203.199219 85.964844 C 206.074219 85.515625 208.953125 86.21875 211.300781 87.9375 C 213.648438 89.65625 215.1875 92.1875 215.632812 95.0625 C 216.554688 101.003906 212.472656 106.582031 206.535156 107.503906 C 205.96875 107.59375 205.40625 107.636719 204.84375 107.636719 Z M 201.621094 113.085938 C 201.644531 113.085938 201.667969 113.089844 201.695312 113.09375 C 202.589844 113.265625 203.519531 113.367188 204.457031 113.386719 C 204.613281 113.390625 204.753906 113.488281 204.808594 113.632812 L 206.332031 117.492188 L 209.753906 116.964844 L 210.039062 112.824219 C 210.046875 112.667969 210.148438 112.53125 210.296875 112.484375 C 211.183594 112.175781 212.039062 111.800781 212.839844 111.363281 C 212.976562 111.292969 213.144531 111.304688 213.265625 111.402344 L 216.511719 113.980469 L 219.210938 111.808594 L 217.386719 108.078125 C 217.316406 107.941406 217.339844 107.773438 217.441406 107.65625 C 218.046875 106.957031 218.597656 106.203125 219.082031 105.414062 C 219.160156 105.28125 219.3125 105.207031 219.464844 105.234375 L 223.574219 105.847656 L 224.824219 102.613281 L 221.386719 100.300781 C 221.253906 100.214844 221.191406 100.058594 221.21875 99.90625 C 221.394531 99.011719 221.492188 98.082031 221.515625 97.144531 C 221.519531 96.988281 221.613281 96.851562 221.761719 96.792969 L 225.621094 95.269531 L 225.089844 91.84375 L 220.949219 91.5625 C 220.792969 91.550781 220.660156 91.449219 220.609375 91.300781 C 220.304688 90.414062 219.929688 89.558594 219.492188 88.757812 C 219.417969 88.621094 219.433594 88.453125 219.527344 88.332031 L 222.105469 85.085938 L 219.9375 82.382812 L 216.207031 84.210938 C 216.070312 84.28125 215.902344 84.257812 215.785156 84.15625 C 215.085938 83.550781 214.332031 82.996094 213.542969 82.515625 C 213.410156 82.433594 213.339844 82.285156 213.363281 82.128906 L 213.976562 78.023438 L 210.746094 76.769531 L 208.433594 80.210938 C 208.347656 80.339844 208.191406 80.402344 208.039062 80.375 C 207.144531 80.203125 206.210938 80.101562 205.273438 80.082031 C 205.121094 80.074219 204.980469 79.980469 204.921875 79.835938 L 203.402344 75.972656 L 199.976562 76.503906 L 199.695312 80.644531 C 199.683594 80.800781 199.582031 80.933594 199.4375 80.984375 C 198.550781 81.289062 197.691406 81.667969 196.890625 82.105469 C 196.753906 82.179688 196.585938 82.164062 196.464844 82.066406 L 193.222656 79.488281 L 190.519531 81.660156 L 192.347656 85.390625 C 192.414062 85.527344 192.394531 85.695312 192.292969 85.8125 C 191.683594 86.511719 191.132812 87.265625 190.652344 88.054688 C 190.570312 88.1875 190.417969 88.261719 190.265625 88.234375 L 186.160156 87.621094 L 184.90625 90.855469 L 188.347656 93.167969 C 188.476562 93.253906 188.542969 93.410156 188.511719 93.5625 C 188.339844 94.457031 188.238281 95.386719 188.21875 96.324219 C 188.214844 96.480469 188.117188 96.617188 187.972656 96.675781 L 184.113281 98.199219 L 184.640625 101.625 L 188.785156 101.90625 C 188.9375 101.917969 189.070312 102.019531 189.121094 102.167969 C 189.425781 103.054688 189.804688 103.910156 190.238281 104.710938 C 190.316406 104.847656 190.300781 105.015625 190.203125 105.136719 L 187.625 108.382812 L 189.796875 111.085938 L 193.523438 109.257812 C 193.664062 109.1875 193.832031 109.210938 193.949219 109.3125 C 194.644531 109.917969 195.398438 110.46875 196.1875 110.953125 C 196.320312 111.035156 196.390625 111.1875 196.367188 111.339844 L 195.757812 115.445312 L 198.988281 116.699219 L 201.300781 113.257812 C 201.371094 113.148438 201.492188 113.085938 201.621094 113.085938 Z M 206.085938 118.308594 C 205.925781 118.308594 205.785156 118.214844 205.726562 118.066406 L 204.183594 114.152344 C 203.375 114.121094 202.574219 114.035156 201.796875 113.898438 L 199.457031 117.386719 C 199.355469 117.535156 199.164062 117.59375 198.996094 117.53125 L 195.191406 116.054688 C 195.023438 115.988281 194.921875 115.816406 194.949219 115.636719 L 195.566406 111.476562 C 194.894531 111.050781 194.246094 110.578125 193.636719 110.0625 L 189.859375 111.914062 C 189.695312 111.992188 189.5 111.949219 189.386719 111.808594 L 186.828125 108.625 C 186.714844 108.484375 186.714844 108.285156 186.828125 108.144531 L 189.441406 104.855469 C 189.074219 104.15625 188.75 103.421875 188.476562 102.660156 L 184.28125 102.375 C 184.101562 102.359375 183.953125 102.226562 183.925781 102.046875 L 183.300781 98.011719 C 183.273438 97.835938 183.375 97.660156 183.539062 97.59375 L 187.453125 96.050781 C 187.484375 95.242188 187.566406 94.445312 187.707031 93.667969 L 184.222656 91.324219 C 184.070312 91.222656 184.011719 91.03125 184.074219 90.863281 L 185.550781 87.054688 C 185.617188 86.886719 185.789062 86.785156 185.96875 86.8125 L 190.128906 87.433594 C 190.554688 86.757812 191.027344 86.113281 191.542969 85.5 L 189.691406 81.722656 C 189.613281 81.558594 189.65625 81.363281 189.796875 81.25 L 192.976562 78.691406 C 193.117188 78.578125 193.316406 78.578125 193.457031 78.691406 L 196.746094 81.304688 C 197.449219 80.9375 198.183594 80.613281 198.941406 80.339844 L 199.226562 76.144531 C 199.242188 75.964844 199.375 75.816406 199.554688 75.789062 L 203.589844 75.164062 C 203.765625 75.136719 203.941406 75.234375 204.007812 75.402344 L 205.550781 79.316406 C 206.355469 79.347656 207.15625 79.429688 207.933594 79.570312 L 210.273438 76.082031 C 210.375 75.933594 210.566406 75.871094 210.734375 75.9375 L 214.542969 77.414062 C 214.710938 77.480469 214.8125 77.652344 214.785156 77.832031 L 214.164062 81.992188 C 214.839844 82.417969 215.484375 82.890625 216.097656 83.40625 L 219.875 81.554688 C 220.035156 81.476562 220.230469 81.519531 220.34375 81.660156 L 222.902344 84.84375 C 223.015625 84.980469 223.015625 85.183594 222.90625 85.324219 L 220.292969 88.613281 C 220.660156 89.3125 220.980469 90.046875 221.253906 90.808594 L 225.449219 91.09375 C 225.628906 91.105469 225.777344 91.242188 225.804688 91.421875 L 226.433594 95.457031 C 226.460938 95.632812 226.359375 95.808594 226.191406 95.875 L 222.28125 97.417969 C 222.25 98.226562 222.164062 99.027344 222.027344 99.800781 L 225.511719 102.144531 C 225.664062 102.246094 225.722656 102.4375 225.65625 102.605469 L 224.183594 106.414062 C 224.117188 106.582031 223.941406 106.683594 223.761719 106.65625 L 219.601562 106.035156 C 219.179688 106.707031 218.703125 107.359375 218.1875 107.96875 L 220.042969 111.746094 C 220.121094 111.90625 220.078125 112.105469 219.9375 112.21875 L 216.753906 114.777344 C 216.617188 114.890625 216.414062 114.890625 216.273438 114.777344 L 212.984375 112.164062 C 212.285156 112.53125 211.550781 112.855469 210.789062 113.128906 L 210.503906 117.324219 C 210.492188 117.503906 210.355469 117.652344 210.179688 117.679688 L 206.144531 118.304688 C 206.125 118.308594 206.105469 118.308594 206.085938 118.308594 " fill-opacity="1" fill-rule="nonzero"/><path fill="#000000" d="M 132.121094 132.421875 C 131.90625 132.421875 131.734375 132.25 131.734375 132.035156 L 131.734375 130.039062 C 131.734375 129.824219 131.90625 129.652344 132.121094 129.652344 C 132.332031 129.652344 132.507812 129.824219 132.507812 130.039062 L 132.507812 132.035156 C 132.507812 132.25 132.332031 132.421875 132.121094 132.421875 " fill-opacity="1" fill-rule="nonzero"/><path fill="#000000" d="M 132.121094 137.074219 C 131.90625 137.074219 131.734375 136.902344 131.734375 136.6875 L 131.734375 134.691406 C 131.734375 134.480469 131.90625 134.304688 132.121094 134.304688 C 132.332031 134.304688 132.507812 134.480469 132.507812 134.691406 L 132.507812 136.6875 C 132.507812 136.902344 132.332031 137.074219 132.121094 137.074219 " fill-opacity="1" fill-rule="nonzero"/><path fill="#000000" d="M 130.792969 133.75 L 128.796875 133.75 C 128.582031 133.75 128.410156 133.578125 128.410156 133.363281 C 128.410156 133.152344 128.582031 132.976562 128.796875 132.976562 L 130.792969 132.976562 C 131.003906 132.976562 131.179688 133.152344 131.179688 133.363281 C 131.179688 133.578125 131.003906 133.75 130.792969 133.75 " fill-opacity="1" fill-rule="nonzero"/><path fill="#000000" d="M 135.445312 133.75 L 133.445312 133.75 C 133.234375 133.75 133.0625 133.578125 133.0625 133.363281 C 133.0625 133.152344 133.234375 132.976562 133.445312 132.976562 L 135.445312 132.976562 C 135.65625 132.976562 135.832031 133.152344 135.832031 133.363281 C 135.832031 133.578125 135.65625 133.75 135.445312 133.75 " fill-opacity="1" fill-rule="nonzero"/><path fill="#000000" d="M 238.367188 268.949219 C 238.179688 268.949219 238.011719 268.808594 237.984375 268.613281 L 237.726562 266.632812 C 237.699219 266.417969 237.847656 266.226562 238.058594 266.199219 C 238.269531 266.171875 238.464844 266.320312 238.492188 266.53125 L 238.753906 268.511719 C 238.78125 268.722656 238.628906 268.917969 238.417969 268.945312 C 238.402344 268.945312 238.386719 268.949219 238.367188 268.949219 " fill-opacity="1" fill-rule="nonzero"/><path fill="#000000" d="M 238.972656 273.5625 C 238.78125 273.5625 238.617188 273.417969 238.59375 273.226562 L 238.332031 271.246094 C 238.304688 271.035156 238.453125 270.839844 238.664062 270.8125 C 238.875 270.785156 239.070312 270.933594 239.097656 271.144531 L 239.359375 273.125 C 239.386719 273.335938 239.234375 273.53125 239.027344 273.558594 C 239.007812 273.558594 238.992188 273.5625 238.972656 273.5625 " fill-opacity="1" fill-rule="nonzero"/><path fill="#000000" d="M 235.246094 270.699219 C 235.054688 270.699219 234.890625 270.554688 234.863281 270.363281 C 234.835938 270.152344 234.984375 269.957031 235.195312 269.929688 L 237.175781 269.667969 C 237.386719 269.640625 237.582031 269.789062 237.609375 270 C 237.636719 270.210938 237.488281 270.40625 237.277344 270.433594 L 235.296875 270.695312 C 235.28125 270.695312 235.261719 270.699219 235.246094 270.699219 " fill-opacity="1" fill-rule="nonzero"/><path fill="#000000" d="M 239.855469 270.089844 C 239.667969 270.089844 239.5 269.949219 239.472656 269.753906 C 239.449219 269.542969 239.59375 269.351562 239.808594 269.324219 L 241.785156 269.0625 C 242 269.035156 242.191406 269.183594 242.222656 269.394531 C 242.246094 269.605469 242.097656 269.800781 241.886719 269.828125 L 239.90625 270.089844 C 239.890625 270.089844 239.875 270.089844 239.855469 270.089844 " fill-opacity="1" fill-rule="nonzero"/><path fill="#000000" d="M 174.152344 78.449219 C 173.523438 78.449219 172.914062 78.773438 172.578125 79.355469 C 172.078125 80.222656 172.378906 81.332031 173.242188 81.832031 C 174.109375 82.332031 175.21875 82.035156 175.71875 81.167969 C 175.964844 80.75 176.027344 80.261719 175.902344 79.792969 C 175.777344 79.324219 175.476562 78.933594 175.058594 78.691406 C 174.773438 78.527344 174.460938 78.449219 174.152344 78.449219 Z M 174.148438 82.847656 C 173.707031 82.847656 173.265625 82.734375 172.855469 82.503906 C 171.621094 81.789062 171.199219 80.203125 171.910156 78.96875 C 172.625 77.734375 174.207031 77.308594 175.441406 78.023438 C 176.042969 78.367188 176.46875 78.925781 176.648438 79.59375 C 176.828125 80.261719 176.734375 80.957031 176.390625 81.558594 C 175.910156 82.386719 175.039062 82.847656 174.148438 82.847656 " fill-opacity="1" fill-rule="nonzero"/><path fill="#000000" d="M 229.699219 273.148438 C 229.464844 273.148438 229.230469 273.195312 229.003906 273.289062 C 228.558594 273.472656 228.210938 273.820312 228.023438 274.269531 C 227.640625 275.191406 228.082031 276.257812 229.003906 276.636719 C 229.453125 276.824219 229.945312 276.824219 230.394531 276.640625 C 230.839844 276.453125 231.191406 276.105469 231.375 275.660156 C 231.558594 275.210938 231.558594 274.71875 231.375 274.269531 C 231.191406 273.824219 230.84375 273.472656 230.394531 273.289062 C 230.171875 273.195312 229.933594 273.148438 229.699219 273.148438 Z M 229.699219 277.550781 C 229.363281 277.550781 229.027344 277.484375 228.710938 277.351562 C 227.390625 276.804688 226.765625 275.289062 227.3125 273.972656 C 227.574219 273.335938 228.074219 272.835938 228.710938 272.574219 C 229.351562 272.308594 230.054688 272.308594 230.691406 272.574219 C 231.328125 272.839844 231.824219 273.335938 232.089844 273.976562 C 232.351562 274.613281 232.351562 275.316406 232.089844 275.953125 C 231.824219 276.59375 231.328125 277.089844 230.6875 277.351562 C 230.371094 277.484375 230.035156 277.550781 229.699219 277.550781 " fill-opacity="1" fill-rule="nonzero"/><path fill="#000000" d="M 89 182.234375 C 88.792969 182.234375 88.621094 182.070312 88.617188 181.859375 C 88.207031 169.324219 90.46875 157.136719 95.152344 146.609375 C 95.238281 146.414062 95.46875 146.324219 95.664062 146.414062 C 95.859375 146.5 95.945312 146.726562 95.859375 146.921875 C 91.21875 157.34375 88.984375 169.417969 89.386719 181.835938 C 89.394531 182.046875 89.226562 182.226562 89.015625 182.234375 C 89.011719 182.234375 89.003906 182.234375 89 182.234375 " fill-opacity="1" fill-rule="nonzero"/><path fill="#000000" d="M 85.265625 176.320312 C 85.054688 176.320312 84.882812 176.152344 84.882812 175.941406 C 84.761719 164.335938 86.832031 153.460938 91.03125 143.621094 C 91.539062 142.429688 92.082031 141.246094 92.644531 140.105469 C 92.742188 139.914062 92.972656 139.835938 93.164062 139.929688 C 93.355469 140.023438 93.433594 140.253906 93.339844 140.445312 C 92.78125 141.578125 92.242188 142.746094 91.742188 143.921875 C 87.585938 153.664062 85.535156 164.433594 85.652344 175.929688 C 85.65625 176.144531 85.484375 176.320312 85.269531 176.320312 C 85.269531 176.320312 85.269531 176.320312 85.265625 176.320312 " fill-opacity="1" fill-rule="nonzero"/><path fill="#000000" d="M 265.691406 97.054688 C 265.546875 97.054688 265.40625 96.972656 265.339844 96.828125 C 260.65625 86.675781 250.75 80 243.6875 77.367188 C 243.488281 77.292969 243.386719 77.070312 243.460938 76.871094 C 243.535156 76.671875 243.757812 76.566406 243.957031 76.644531 C 251.15625 79.324219 261.261719 86.140625 266.042969 96.507812 C 266.132812 96.699219 266.046875 96.929688 265.855469 97.019531 C 265.800781 97.042969 265.746094 97.054688 265.691406 97.054688 " fill-opacity="1" fill-rule="nonzero"/><path fill="#000000" d="M 268.996094 95.574219 C 268.824219 95.574219 268.671875 95.464844 268.625 95.292969 C 266.523438 87.824219 259.238281 80.589844 249.601562 76.414062 C 249.40625 76.328125 249.316406 76.105469 249.402344 75.90625 C 249.488281 75.710938 249.714844 75.621094 249.910156 75.707031 C 259.75 79.972656 267.207031 87.398438 269.367188 95.082031 C 269.425781 95.289062 269.304688 95.503906 269.097656 95.5625 C 269.0625 95.570312 269.027344 95.574219 268.996094 95.574219 " fill-opacity="1" fill-rule="nonzero"/><g clip-path="url(#b6f5e2bc67)"><path fill="#5479f7" d="M 162.417969 203.878906 C 159.285156 203.480469 156.941406 200.816406 156.941406 197.660156 L 156.53125 111.488281 L 158.070312 108.167969 C 158.070312 108.167969 160.855469 106.304688 162.320312 105.472656 C 163.199219 104.972656 164.246094 104.742188 165.339844 104.878906 L 289.625 120.734375 C 292.75 121.132812 295.097656 123.796875 295.097656 126.953125 L 295.097656 212.378906 C 294.949219 217.617188 287.90625 220.777344 287.90625 220.777344 L 162.417969 203.878906 " fill-opacity="1" fill-rule="nonzero"/></g><path fill="#ffffff" d="M 285.160156 221.308594 L 160.125 205.355469 C 156.976562 204.953125 154.617188 202.273438 154.617188 199.101562 L 154.617188 113.15625 C 154.617188 110.207031 157.207031 107.921875 160.136719 108.296875 L 285.171875 124.246094 C 288.320312 124.648438 290.679688 127.328125 290.679688 130.503906 L 290.679688 216.445312 C 290.679688 219.398438 288.089844 221.679688 285.160156 221.308594 " fill-opacity="1" fill-rule="nonzero"/><path fill="#99b9ff" d="M 280.683594 217.257812 L 164.601562 202.453125 C 161.679688 202.078125 159.488281 199.589844 159.488281 196.644531 L 159.488281 116.855469 C 159.488281 114.117188 161.894531 111.996094 164.613281 112.34375 L 280.695312 127.152344 C 283.617188 127.523438 285.808594 130.011719 285.808594 132.960938 L 285.808594 212.746094 C 285.808594 215.488281 283.402344 217.605469 280.683594 217.257812 " fill-opacity="1" fill-rule="nonzero"/><path fill="#caddff" d="M 208.480469 129.53125 C 208.433594 129.53125 208.390625 129.527344 208.347656 129.523438 L 166.84375 124.226562 C 166.277344 124.15625 165.878906 123.640625 165.949219 123.074219 C 166.023438 122.511719 166.535156 122.109375 167.101562 122.183594 L 208.609375 127.476562 C 209.171875 127.550781 209.570312 128.066406 209.5 128.628906 C 209.433594 129.152344 208.988281 129.53125 208.480469 129.53125 " fill-opacity="1" fill-rule="nonzero"/><path fill="#caddff" d="M 208.476562 137.015625 C 208.433594 137.015625 208.390625 137.011719 208.347656 137.007812 L 191.085938 134.804688 C 190.523438 134.734375 190.125 134.21875 190.195312 133.652344 C 190.269531 133.085938 190.78125 132.6875 191.347656 132.761719 L 208.605469 134.960938 C 209.171875 135.035156 209.570312 135.550781 209.5 136.113281 C 209.433594 136.632812 208.988281 137.015625 208.476562 137.015625 " fill-opacity="1" fill-rule="nonzero"/><path fill="#caddff" d="M 208.480469 144.496094 C 208.433594 144.496094 208.390625 144.496094 208.347656 144.488281 L 166.84375 139.195312 C 166.277344 139.121094 165.878906 138.605469 165.949219 138.042969 C 166.023438 137.476562 166.539062 137.074219 167.101562 137.152344 L 208.605469 142.445312 C 209.171875 142.515625 209.570312 143.03125 209.5 143.597656 C 209.433594 144.117188 208.988281 144.496094 208.480469 144.496094 " fill-opacity="1" fill-rule="nonzero"/><path fill="#caddff" d="M 208.480469 151.980469 C 208.433594 151.980469 208.390625 151.976562 208.347656 151.972656 L 176.335938 147.890625 C 175.773438 147.816406 175.375 147.300781 175.445312 146.738281 C 175.519531 146.171875 176.03125 145.773438 176.597656 145.84375 L 208.605469 149.925781 C 209.171875 150 209.570312 150.515625 209.5 151.078125 C 209.433594 151.601562 208.988281 151.980469 208.480469 151.980469 " fill-opacity="1" fill-rule="nonzero"/><path fill="#caddff" d="M 208.480469 173.796875 C 208.4375 173.796875 208.394531 173.796875 208.347656 173.789062 L 166.84375 168.496094 C 166.28125 168.425781 165.882812 167.90625 165.953125 167.34375 C 166.027344 166.777344 166.539062 166.378906 167.105469 166.453125 L 208.609375 171.746094 C 209.175781 171.816406 209.574219 172.335938 209.5 172.898438 C 209.433594 173.417969 208.992188 173.796875 208.480469 173.796875 " fill-opacity="1" fill-rule="nonzero"/><path fill="#caddff" d="M 196.617188 179.945312 C 196.574219 179.945312 196.53125 179.941406 196.488281 179.933594 L 166.84375 176.152344 C 166.28125 176.082031 165.882812 175.566406 165.953125 175 C 166.027344 174.4375 166.539062 174.035156 167.105469 174.109375 L 196.746094 177.890625 C 197.3125 177.964844 197.710938 178.480469 197.636719 179.042969 C 197.574219 179.5625 197.128906 179.945312 196.617188 179.945312 " fill-opacity="1" fill-rule="nonzero"/><path fill="#caddff" d="M 208.480469 188.941406 C 208.4375 188.941406 208.394531 188.9375 208.347656 188.933594 L 166.84375 183.636719 C 166.28125 183.566406 165.882812 183.046875 165.953125 182.484375 C 166.023438 181.921875 166.539062 181.519531 167.105469 181.59375 L 208.609375 186.886719 C 209.175781 186.960938 209.574219 187.476562 209.5 188.039062 C 209.433594 188.558594 208.992188 188.941406 208.480469 188.941406 " fill-opacity="1" fill-rule="nonzero"/><path fill="#caddff" d="M 208.480469 196.421875 C 208.4375 196.421875 208.394531 196.421875 208.347656 196.414062 L 166.84375 191.121094 C 166.28125 191.046875 165.882812 190.53125 165.953125 189.96875 C 166.027344 189.402344 166.539062 189 167.105469 189.078125 L 208.609375 194.371094 C 209.175781 194.441406 209.574219 194.960938 209.5 195.523438 C 209.433594 196.042969 208.992188 196.421875 208.480469 196.421875 " fill-opacity="1" fill-rule="nonzero"/><path fill="#caddff" d="M 278.804688 138.175781 C 278.769531 138.175781 278.730469 138.175781 278.691406 138.171875 L 247.171875 134.804688 C 246.605469 134.742188 246.195312 134.234375 246.257812 133.667969 C 246.316406 133.101562 246.824219 132.691406 247.390625 132.753906 L 278.914062 136.121094 C 279.476562 136.183594 279.886719 136.691406 279.828125 137.257812 C 279.769531 137.785156 279.324219 138.175781 278.804688 138.175781 " fill-opacity="1" fill-rule="nonzero"/><path fill="#caddff" d="M 271.40625 145.027344 C 271.371094 145.027344 271.335938 145.027344 271.296875 145.019531 L 245.820312 142.28125 C 245.253906 142.21875 244.847656 141.710938 244.90625 141.144531 C 244.96875 140.582031 245.476562 140.175781 246.042969 140.234375 L 271.515625 142.972656 C 272.082031 143.035156 272.492188 143.542969 272.429688 144.105469 C 272.375 144.636719 271.925781 145.027344 271.40625 145.027344 " fill-opacity="1" fill-rule="nonzero"/><path fill="#000000" d="M 285.78125 221.730469 C 285.558594 221.730469 285.335938 221.71875 285.113281 221.6875 L 160.078125 205.738281 C 156.746094 205.3125 154.230469 202.460938 154.230469 199.097656 L 154.230469 193.414062 C 154.230469 193.199219 154.402344 193.027344 154.617188 193.027344 C 154.832031 193.027344 155.003906 193.199219 155.003906 193.414062 L 155.003906 199.097656 C 155.003906 202.070312 157.226562 204.597656 160.175781 204.972656 L 285.210938 220.921875 C 286.496094 221.089844 287.789062 220.691406 288.765625 219.832031 C 289.738281 218.976562 290.296875 217.738281 290.296875 216.441406 L 290.296875 130.503906 C 290.296875 127.53125 288.074219 125.003906 285.125 124.628906 L 160.089844 108.679688 C 158.804688 108.515625 157.507812 108.910156 156.535156 109.769531 C 155.5625 110.625 155.003906 111.859375 155.003906 113.15625 L 155.003906 165.855469 C 155.003906 166.070312 154.832031 166.242188 154.617188 166.242188 C 154.402344 166.242188 154.230469 166.070312 154.230469 165.855469 L 154.230469 113.15625 C 154.230469 111.640625 154.882812 110.191406 156.023438 109.1875 C 157.164062 108.183594 158.679688 107.71875 160.1875 107.910156 L 285.222656 123.863281 C 288.554688 124.289062 291.066406 127.140625 291.066406 130.503906 L 291.066406 216.441406 C 291.066406 217.960938 290.414062 219.410156 289.273438 220.410156 C 288.304688 221.265625 287.058594 221.730469 285.78125 221.730469 " fill-opacity="1" fill-rule="nonzero"/><path fill="#5479f7" d="M 212.277344 269.640625 L 84.457031 253.148438 C 83.457031 253.023438 82.890625 252.183594 82.90625 251.347656 C 82.914062 250.769531 82.960938 246.699219 82.960938 246.699219 L 150.546875 208.050781 C 153.933594 206.113281 158.3125 205.367188 162.183594 205.863281 L 288.390625 222.148438 C 289.148438 222.246094 289.800781 222.738281 290.101562 223.445312 L 290.304688 223.917969 C 290.304688 223.917969 290.195312 227.3125 290.238281 228.105469 C 290.273438 228.726562 289.996094 229.367188 289.347656 229.738281 L 223.457031 267.421875 C 220.070312 269.355469 216.144531 270.132812 212.277344 269.640625 " fill-opacity="1" fill-rule="nonzero"/><path fill="#ffffff" d="M 212.277344 265.109375 L 84.914062 248.652344 C 83.222656 248.433594 82.777344 246.191406 84.257812 245.347656 L 149.792969 207.90625 C 153.179688 205.972656 157.105469 205.191406 160.972656 205.6875 L 288.335938 222.144531 C 290.027344 222.363281 290.472656 224.605469 288.992188 225.453125 L 223.457031 262.890625 C 220.070312 264.828125 216.144531 265.605469 212.277344 265.109375 " fill-opacity="1" fill-rule="nonzero"/><path fill="#caddff" d="M 237.210938 244.328125 L 126.773438 229.953125 C 125.246094 229.757812 124.84375 227.730469 126.179688 226.96875 L 152.148438 212.28125 C 155.207031 210.535156 158.75 209.832031 162.246094 210.277344 L 272.6875 224.652344 C 274.210938 224.847656 274.613281 226.875 273.277344 227.640625 L 247.308594 242.324219 C 244.25 244.070312 240.707031 244.773438 237.210938 244.328125 " fill-opacity="1" fill-rule="nonzero"/><path fill="#caddff" d="M 172.402344 252.765625 L 141.664062 248.792969 C 141.257812 248.738281 141.148438 248.199219 141.507812 247.996094 L 156.359375 239.871094 C 157.175781 239.402344 158.125 239.214844 159.058594 239.332031 L 189.796875 243.304688 C 190.203125 243.359375 190.3125 243.898438 189.953125 244.105469 L 175.101562 252.230469 C 174.285156 252.695312 173.339844 252.882812 172.402344 252.765625 " fill-opacity="1" fill-rule="nonzero"/><path fill="#000000" d="M 214.527344 265.640625 C 213.761719 265.640625 212.992188 265.589844 212.226562 265.492188 L 141.652344 256.375 C 141.4375 256.34375 141.289062 256.152344 141.316406 255.941406 C 141.34375 255.730469 141.539062 255.578125 141.75 255.609375 L 212.328125 264.726562 C 216.085938 265.207031 219.972656 264.4375 223.265625 262.558594 L 288.796875 225.117188 C 289.4375 224.75 289.570312 224.113281 289.472656 223.636719 C 289.378906 223.164062 289.019531 222.625 288.285156 222.53125 L 160.921875 206.070312 C 157.160156 205.589844 153.277344 206.359375 149.984375 208.242188 L 143.214844 212.109375 C 143.03125 212.214844 142.792969 212.148438 142.6875 211.964844 C 142.582031 211.78125 142.648438 211.542969 142.832031 211.4375 L 149.601562 207.570312 C 153.039062 205.605469 157.09375 204.800781 161.019531 205.304688 L 288.386719 221.761719 C 289.324219 221.882812 290.046875 222.558594 290.230469 223.488281 C 290.414062 224.414062 290.003906 225.316406 289.183594 225.785156 L 223.648438 263.226562 C 220.878906 264.808594 217.707031 265.640625 214.527344 265.640625 " fill-opacity="1" fill-rule="nonzero"/><path fill="#000000" d="M 108.761719 252.117188 C 108.746094 252.117188 108.726562 252.117188 108.710938 252.117188 L 84.863281 249.035156 C 83.925781 248.914062 83.203125 248.238281 83.019531 247.3125 C 82.835938 246.382812 83.246094 245.480469 84.066406 245.011719 L 104.046875 233.597656 C 104.230469 233.492188 104.46875 233.558594 104.574219 233.742188 C 104.679688 233.925781 104.613281 234.164062 104.429688 234.269531 L 84.449219 245.683594 C 83.808594 246.046875 83.683594 246.6875 83.777344 247.160156 C 83.871094 247.636719 84.230469 248.175781 84.964844 248.269531 L 108.808594 251.351562 C 109.023438 251.378906 109.171875 251.570312 109.144531 251.78125 C 109.117188 251.976562 108.953125 252.117188 108.761719 252.117188 " fill-opacity="1" fill-rule="nonzero"/><path fill="#000000" d="M 244.539062 225.78125 C 244.523438 225.78125 244.507812 225.78125 244.488281 225.777344 L 198.289062 220.160156 C 198.078125 220.132812 197.925781 219.941406 197.953125 219.730469 C 197.980469 219.519531 198.171875 219.371094 198.382812 219.394531 L 244.582031 225.011719 C 244.796875 225.039062 244.945312 225.230469 244.921875 225.441406 C 244.898438 225.636719 244.730469 225.78125 244.539062 225.78125 " fill-opacity="1" fill-rule="nonzero"/><path fill="#000000" d="M 224.339844 230.3125 C 224.324219 230.3125 224.308594 230.3125 224.289062 230.308594 L 210.878906 228.679688 C 210.667969 228.652344 210.515625 228.460938 210.542969 228.25 C 210.566406 228.035156 210.757812 227.886719 210.972656 227.910156 L 224.382812 229.542969 C 224.597656 229.570312 224.746094 229.761719 224.722656 229.972656 C 224.699219 230.167969 224.53125 230.3125 224.339844 230.3125 " fill-opacity="1" fill-rule="nonzero"/><path fill="#99b9ff" d="M 176.507812 231.128906 C 176.492188 231.128906 176.476562 231.125 176.460938 231.125 L 163.046875 229.492188 C 162.835938 229.46875 162.683594 229.277344 162.710938 229.0625 C 162.738281 228.851562 162.929688 228.703125 163.140625 228.726562 L 176.554688 230.359375 C 176.765625 230.382812 176.914062 230.574219 176.890625 230.789062 C 176.867188 230.984375 176.699219 231.128906 176.507812 231.128906 " fill-opacity="1" fill-rule="nonzero"/><path fill="#5479f7" d="M 171.796875 150.535156 L 185.058594 143.890625 C 195.851562 138.488281 205.820312 131.695312 214.722656 123.683594 L 215.152344 119.570312 C 215.152344 119.570312 219.78125 119.621094 220.769531 119.566406 C 222.03125 119.492188 223.34375 119.933594 224.367188 120.871094 C 235.109375 130.738281 247.171875 139.066406 260.167969 145.59375 L 269.359375 150.210938 C 271.5 151.28125 272.371094 153.175781 271.90625 155.890625 L 263.089844 204.738281 C 258.8125 218.40625 239.429688 236.691406 228.476562 246.210938 C 226.480469 247.945312 223.972656 248.789062 221.425781 248.773438 C 220.296875 248.765625 215.625 248.914062 215.625 248.914062 C 215.625 248.914062 214.523438 246.960938 213.136719 245.640625 C 202.183594 235.222656 182.867188 215.167969 178.269531 199.371094 L 169.617188 155.710938 C 169.007812 153.625 169.910156 151.476562 171.796875 150.535156 " fill-opacity="1" fill-rule="nonzero"/><path fill="#ffffff" d="M 166.640625 150.796875 L 179.800781 144.207031 C 190.507812 138.84375 200.402344 132.105469 209.230469 124.15625 L 212.546875 121.171875 C 214.273438 119.621094 216.988281 119.703125 218.800781 121.367188 C 229.460938 131.15625 241.429688 139.421875 254.324219 145.894531 L 263.445312 150.476562 C 265.566406 151.539062 266.648438 153.953125 265.972656 156.113281 L 257.222656 204.582031 C 252.976562 218.140625 233.539062 236.453125 222.671875 245.902344 C 218.460938 249.558594 211.933594 249.230469 207.660156 245.164062 C 196.792969 234.824219 177.628906 214.925781 173.0625 199.257812 L 164.476562 155.933594 C 163.875 153.863281 164.773438 151.734375 166.640625 150.796875 " fill-opacity="1" fill-rule="nonzero"/><path fill="#000000" d="M 173.4375 199.164062 C 177.976562 214.710938 196.992188 234.480469 207.925781 244.882812 C 212.027344 248.789062 218.394531 249.105469 222.417969 245.609375 C 233.46875 236.003906 252.632812 217.894531 256.847656 204.488281 L 265.59375 156.046875 C 265.59375 156.027344 265.597656 156.011719 265.601562 155.996094 C 266.222656 154.023438 265.21875 151.796875 263.273438 150.820312 L 254.152344 146.238281 C 241.214844 139.746094 229.234375 131.472656 218.539062 121.652344 C 216.890625 120.136719 214.371094 120.050781 212.808594 121.460938 L 209.492188 124.445312 C 200.640625 132.410156 190.707031 139.179688 179.972656 144.550781 L 166.816406 151.140625 C 165.105469 152 164.296875 153.925781 164.847656 155.824219 C 164.851562 155.835938 164.855469 155.847656 164.855469 155.859375 Z M 215.753906 248.804688 C 212.773438 248.804688 209.734375 247.671875 207.390625 245.441406 C 196.398438 234.984375 177.273438 215.089844 172.691406 199.363281 C 172.6875 199.351562 172.6875 199.339844 172.683594 199.332031 L 164.101562 156.023438 C 163.453125 153.765625 164.425781 151.476562 166.46875 150.453125 L 179.628906 143.863281 C 190.300781 138.519531 200.171875 131.789062 208.976562 123.867188 L 212.289062 120.882812 C 214.179688 119.183594 217.089844 119.269531 219.0625 121.082031 C 229.707031 130.855469 241.628906 139.085938 254.5 145.550781 L 263.621094 150.128906 C 265.894531 151.273438 267.0625 153.878906 266.347656 156.203125 L 257.605469 204.648438 C 257.601562 204.664062 257.597656 204.679688 257.59375 204.695312 C 253.335938 218.289062 234.046875 236.527344 222.925781 246.191406 C 220.910156 247.941406 218.351562 248.804688 215.753906 248.804688 " fill-opacity="1" fill-rule="nonzero"/><path fill="#caddff" d="M 175.296875 156.550781 L 186.191406 151.097656 C 195.058594 146.65625 203.25 141.078125 210.5625 134.492188 L 213.308594 132.023438 C 214.734375 130.738281 216.984375 130.808594 218.484375 132.183594 C 227.3125 140.289062 237.222656 147.132812 247.898438 152.492188 L 255.449219 156.285156 C 257.207031 157.167969 258.101562 159.164062 257.539062 160.953125 L 250.296875 201.082031 C 246.78125 212.308594 230.6875 227.476562 221.6875 235.296875 C 218.203125 238.324219 212.800781 238.054688 209.257812 234.683594 C 200.261719 226.125 184.394531 209.648438 180.613281 196.675781 L 173.507812 160.804688 C 173.007812 159.089844 173.75 157.328125 175.296875 156.550781 " fill-opacity="1" fill-rule="nonzero"/><path fill="#ffffff" d="M 223.402344 169.613281 L 223.414062 156.722656 C 223.390625 152.558594 220.136719 148.902344 215.964844 148.394531 C 211.367188 147.839844 207.488281 151.296875 207.515625 155.890625 L 207.535156 169.570312 C 207.535156 169.570312 202.566406 170.082031 202.566406 168.800781 L 202.695312 155.820312 C 202.652344 148.441406 208.675781 142.839844 216.304688 143.726562 L 216.300781 143.734375 C 222.605469 144.464844 228.28125 150.425781 228.328125 157.164062 L 228.269531 170.179688 L 223.402344 169.613281 " fill-opacity="1" fill-rule="nonzero"/><path fill="#000000" d="M 223.789062 169.269531 L 227.882812 169.746094 L 227.9375 157.164062 C 227.898438 150.824219 222.550781 144.847656 216.257812 144.117188 C 216.234375 144.113281 216.210938 144.109375 216.191406 144.101562 C 212.675781 143.710938 209.378906 144.71875 206.902344 146.941406 C 204.417969 149.171875 203.0625 152.320312 203.085938 155.816406 L 202.953125 168.800781 C 202.953125 168.8125 202.953125 168.839844 203.003906 168.882812 C 203.488281 169.324219 205.605469 169.34375 207.148438 169.21875 L 207.128906 155.890625 C 207.113281 153.597656 208.066406 151.425781 209.738281 149.933594 C 211.417969 148.433594 213.707031 147.734375 216.011719 148.011719 C 220.355469 148.539062 223.773438 152.363281 223.800781 156.722656 Z M 228.269531 170.566406 C 228.253906 170.566406 228.238281 170.5625 228.222656 170.5625 L 223.355469 169.996094 C 223.160156 169.976562 223.015625 169.808594 223.015625 169.613281 L 223.027344 156.722656 C 223.003906 152.75 219.882812 149.261719 215.917969 148.78125 C 213.800781 148.519531 211.789062 149.136719 210.25 150.511719 C 208.722656 151.875 207.890625 153.785156 207.902344 155.886719 L 207.921875 169.570312 C 207.921875 169.765625 207.773438 169.933594 207.574219 169.953125 C 206.894531 170.023438 203.453125 170.332031 202.488281 169.457031 C 202.285156 169.277344 202.179688 169.046875 202.183594 168.796875 L 202.3125 155.816406 C 202.289062 152.101562 203.734375 148.746094 206.386719 146.367188 C 209.046875 143.980469 212.585938 142.90625 216.347656 143.34375 C 216.371094 143.34375 216.394531 143.351562 216.417969 143.355469 C 223.046875 144.167969 228.667969 150.472656 228.710938 157.164062 L 228.652344 170.179688 C 228.652344 170.289062 228.605469 170.394531 228.523438 170.46875 C 228.453125 170.53125 228.359375 170.566406 228.269531 170.566406 " fill-opacity="1" fill-rule="nonzero"/><path fill="#5479f7" d="M 220.410156 203.597656 L 214.953125 203.8125 C 207.371094 203.625 200.152344 194.652344 200.253906 184.105469 L 200.421875 167.230469 L 232.597656 166.976562 C 235.453125 166.964844 237.992188 169.492188 237.960938 172.316406 L 237.796875 186.566406 C 237.703125 196.152344 230.101562 203.597656 220.410156 203.597656 " fill-opacity="1" fill-rule="nonzero"/><path fill="#ffffff" d="M 215.125 203.335938 C 204.457031 203.335938 195.5 194.386719 195.605469 183.839844 L 195.769531 167.480469 L 229.804688 167.480469 C 231.367188 167.480469 232.683594 168.796875 232.667969 170.34375 L 232.511719 186.300781 C 232.414062 195.890625 224.816406 203.335938 215.125 203.335938 " fill-opacity="1" fill-rule="nonzero"/><path fill="#000000" d="M 215.121094 203.722656 C 210.566406 203.722656 206.078125 202.085938 202.484375 199.117188 C 198.941406 196.191406 196.5 192.171875 195.605469 187.804688 C 195.558594 187.59375 195.695312 187.390625 195.90625 187.347656 C 196.113281 187.304688 196.316406 187.4375 196.359375 187.648438 C 198.148438 196.371094 206.214844 202.949219 215.121094 202.949219 C 224.5625 202.949219 232.03125 195.636719 232.125 186.296875 L 232.28125 170.257812 C 232.289062 169.640625 232.042969 169.046875 231.589844 168.589844 C 231.136719 168.132812 230.515625 167.871094 229.886719 167.871094 L 198.433594 167.871094 C 197.152344 167.871094 196.140625 168.859375 196.128906 170.121094 L 196.105469 172.355469 C 196.101562 172.570312 195.929688 172.742188 195.71875 172.742188 C 195.71875 172.742188 195.714844 172.742188 195.714844 172.742188 C 195.503906 172.738281 195.332031 172.5625 195.332031 172.347656 L 195.355469 170.113281 C 195.371094 168.421875 196.722656 167.097656 198.433594 167.097656 L 229.886719 167.097656 C 230.71875 167.097656 231.539062 167.441406 232.140625 168.046875 C 232.738281 168.652344 233.0625 169.4375 233.054688 170.265625 L 232.894531 186.304688 C 232.800781 196.070312 224.992188 203.722656 215.121094 203.722656 " fill-opacity="1" fill-rule="nonzero"/><path fill="#000000" d="M 214.097656 192.988281 C 213.226562 192.988281 212.496094 192.261719 212.5 191.402344 L 212.578125 178.683594 C 212.582031 177.898438 213.203125 177.289062 213.996094 177.289062 C 214.867188 177.289062 215.597656 178.015625 215.59375 178.875 L 215.515625 191.589844 C 215.511719 192.375 214.890625 192.988281 214.097656 192.988281 " fill-opacity="1" fill-rule="nonzero"/><path fill="#000000" d="M 219.398438 179.839844 C 219.574219 182.875 217.238281 185.335938 214.175781 185.335938 C 211.117188 185.335938 208.492188 182.875 208.316406 179.839844 C 208.140625 176.808594 210.476562 174.347656 213.535156 174.347656 C 216.597656 174.347656 219.222656 176.808594 219.398438 179.839844 " fill-opacity="1" fill-rule="nonzero"/><path fill="#ffffff" d="M 161.882812 192.136719 C 161.886719 191.804688 143.390625 188.882812 142.195312 185.5 C 140.414062 180.457031 138.195312 174.390625 138.195312 174.390625 L 133.578125 177.308594 L 136.550781 191.824219 L 161.882812 192.136719 " fill-opacity="1" fill-rule="nonzero"/><path fill="#000000" d="M 136.867188 191.441406 L 158.398438 191.707031 C 150.21875 189.949219 142.664062 187.996094 141.832031 185.628906 C 140.351562 181.429688 138.542969 176.46875 137.996094 174.972656 L 134.007812 177.492188 Z M 161.882812 192.523438 C 161.882812 192.523438 161.878906 192.523438 161.878906 192.523438 L 136.546875 192.210938 C 136.363281 192.207031 136.207031 192.078125 136.171875 191.902344 L 133.199219 177.386719 C 133.164062 177.226562 133.234375 177.066406 133.371094 176.980469 L 137.988281 174.0625 C 138.085938 174 138.210938 173.988281 138.320312 174.023438 C 138.429688 174.0625 138.519531 174.148438 138.558594 174.257812 C 138.582031 174.320312 140.800781 180.382812 142.558594 185.371094 C 143.386719 187.71875 154.429688 190.074219 159.148438 191.078125 C 162.269531 191.742188 162.269531 191.742188 162.269531 192.136719 C 162.269531 192.242188 162.226562 192.339844 162.15625 192.414062 C 162.082031 192.484375 161.984375 192.523438 161.882812 192.523438 " fill-opacity="1" fill-rule="nonzero"/><path fill="#5479f7" d="M 109.128906 158.792969 C 113.539062 157.351562 120.261719 156.320312 128.292969 158.878906 C 131.222656 159.8125 133.324219 162.390625 133.683594 165.445312 L 140.226562 203.132812 C 140.554688 205.871094 136.890625 208.535156 134.3125 209.515625 C 131.617188 210.535156 127.546875 211.5 121.777344 211.5 C 115.597656 211.5 111.101562 211.859375 108.597656 210.761719 C 106.515625 209.851562 103.382812 207.644531 103.277344 205.375 L 103.730469 166.636719 C 103.566406 163.105469 105.769531 159.890625 109.128906 158.792969 " fill-opacity="1" fill-rule="nonzero"/><path fill="#5479f7" d="M 140.03125 174.988281 C 140.03125 174.988281 134.804688 160.515625 128.949219 159.121094 L 131.925781 179.628906 L 140.03125 174.988281 " fill-opacity="1" fill-rule="nonzero"/><path fill="#5479f7" d="M 96.949219 182.105469 C 96.949219 182.105469 97.519531 172.421875 98.359375 168.679688 C 100.117188 160.8125 107.625 159.621094 107.625 159.621094 L 108.535156 180.761719 L 96.949219 182.105469 " fill-opacity="1" fill-rule="nonzero"/><path fill="#ffffff" d="M 98.410156 181.703125 C 98.410156 181.703125 97.847656 189.089844 100.773438 194.046875 C 104.265625 199.96875 121.886719 191.992188 121.886719 191.992188 L 123.933594 190.832031 C 125.320312 190.046875 126.972656 189.878906 128.488281 190.367188 L 131.800781 191.4375 C 131.800781 191.4375 129.066406 188.15625 126.742188 186.902344 C 125.652344 186.316406 124.238281 186.871094 123.042969 187.628906 C 120.992188 188.929688 118.574219 189.539062 116.144531 189.46875 L 109.136719 189.257812 C 107.957031 189.222656 106.992188 188.3125 106.890625 187.140625 L 106.359375 181.03125 L 98.410156 181.703125 " fill-opacity="1" fill-rule="nonzero"/><path fill="#000000" d="M 98.777344 182.058594 C 98.714844 183.53125 98.621094 189.640625 101.105469 193.851562 C 101.972656 195.324219 103.820312 195.867188 106.066406 195.867188 C 112.183594 195.867188 121.269531 191.84375 121.710938 191.648438 L 123.746094 190.496094 C 125.222656 189.660156 126.992188 189.480469 128.609375 190 L 130.558594 190.632812 C 129.574219 189.578125 127.972656 188.007812 126.558594 187.242188 C 125.582031 186.71875 124.21875 187.339844 123.25 187.953125 C 121.167969 189.273438 118.707031 189.929688 116.132812 189.851562 L 109.125 189.644531 C 107.75 189.605469 106.625 188.542969 106.507812 187.171875 L 106.007812 181.449219 Z M 106.113281 196.613281 C 103.585938 196.613281 101.46875 195.984375 100.441406 194.242188 C 97.488281 189.238281 98.003906 181.980469 98.027344 181.671875 C 98.039062 181.484375 98.191406 181.335938 98.378906 181.316406 L 106.328125 180.644531 C 106.542969 180.628906 106.726562 180.785156 106.742188 180.996094 L 107.277344 187.105469 C 107.363281 188.085938 108.167969 188.84375 109.148438 188.871094 L 116.15625 189.082031 C 118.574219 189.152344 120.886719 188.539062 122.835938 187.300781 C 124.503906 186.246094 125.875 186 126.925781 186.5625 C 129.289062 187.839844 131.984375 191.054688 132.097656 191.1875 C 132.207031 191.320312 132.214844 191.511719 132.121094 191.652344 C 132.023438 191.796875 131.84375 191.855469 131.679688 191.804688 L 128.371094 190.734375 C 126.960938 190.28125 125.414062 190.4375 124.125 191.167969 L 122.074219 192.328125 C 122.066406 192.335938 122.054688 192.339844 122.046875 192.34375 C 121.519531 192.582031 112.511719 196.613281 106.113281 196.613281 " fill-opacity="1" fill-rule="nonzero"/><path fill="#ffffff" d="M 125.453125 262.921875 L 121.632812 274.320312 C 121.632812 274.320312 125.792969 273.964844 126.191406 274.042969 C 126.589844 274.121094 131.457031 263.648438 131.457031 263.648438 L 125.453125 262.921875 " fill-opacity="1" fill-rule="nonzero"/><path fill="#000000" d="M 126.246094 273.664062 C 126.25 273.664062 126.257812 273.664062 126.265625 273.664062 C 126.257812 273.664062 126.25 273.664062 126.246094 273.664062 Z M 125.71875 263.34375 L 122.183594 273.886719 C 123.347656 273.792969 125.347656 273.644531 126.054688 273.652344 C 126.660156 272.832031 129.207031 267.550781 130.878906 263.964844 Z M 121.632812 274.707031 C 121.515625 274.707031 121.402344 274.65625 121.328125 274.558594 C 121.25 274.457031 121.222656 274.320312 121.265625 274.199219 L 125.085938 262.796875 C 125.144531 262.625 125.316406 262.515625 125.5 262.539062 L 131.5 263.261719 C 131.625 263.277344 131.734375 263.351562 131.792969 263.460938 C 131.851562 263.566406 131.859375 263.695312 131.804688 263.808594 C 131.792969 263.835938 130.574219 266.460938 129.320312 269.042969 C 126.65625 274.527344 126.488281 274.496094 126.117188 274.421875 C 125.851562 274.382812 123.640625 274.539062 121.664062 274.707031 C 121.652344 274.707031 121.644531 274.707031 121.632812 274.707031 " fill-opacity="1" fill-rule="nonzero"/><path fill="#99b9ff" d="M 122.507812 271.816406 C 122.507812 271.816406 128.25 269.460938 129.3125 272.417969 C 130.664062 276.175781 132.777344 281.914062 132.777344 281.914062 C 133.136719 282.914062 132.449219 283.980469 131.390625 284.066406 C 129.292969 284.234375 126.160156 284.371094 124.699219 283.859375 C 122.398438 283.050781 118.578125 275.757812 118.578125 275.757812 L 119.753906 269.554688 C 119.753906 269.554688 121.839844 269.257812 122.507812 271.816406 " fill-opacity="1" fill-rule="nonzero"/><path fill="#000000" d="M 118.980469 275.695312 C 120.082031 277.773438 123.089844 282.882812 124.828125 283.492188 C 125.890625 283.867188 128.210938 283.933594 131.359375 283.679688 C 131.742188 283.648438 132.082031 283.445312 132.289062 283.121094 C 132.5 282.800781 132.542969 282.40625 132.414062 282.046875 C 132.394531 281.992188 130.285156 276.265625 128.949219 272.546875 C 128.785156 272.089844 128.484375 271.769531 128.027344 271.566406 C 126.183594 270.746094 122.6875 272.160156 122.652344 272.175781 C 122.550781 272.214844 122.433594 272.210938 122.335938 272.160156 C 122.234375 272.113281 122.160156 272.019531 122.132812 271.914062 C 121.691406 270.21875 120.589844 269.957031 120.078125 269.929688 Z M 128.007812 284.601562 C 126.648438 284.601562 125.382812 284.503906 124.574219 284.222656 C 122.195312 283.386719 118.632812 276.699219 118.234375 275.9375 C 118.195312 275.859375 118.179688 275.773438 118.195312 275.6875 L 119.375 269.484375 C 119.40625 269.320312 119.535156 269.195312 119.699219 269.171875 C 119.722656 269.167969 121.894531 268.894531 122.753906 271.308594 C 123.785156 270.941406 126.582031 270.078125 128.339844 270.859375 C 128.992188 271.148438 129.441406 271.628906 129.675781 272.285156 C 131.011719 276.003906 133.117188 281.722656 133.140625 281.78125 C 133.351562 282.375 133.28125 283.015625 132.941406 283.542969 C 132.601562 284.066406 132.046875 284.398438 131.421875 284.449219 C 130.367188 284.535156 129.15625 284.601562 128.007812 284.601562 " fill-opacity="1" fill-rule="nonzero"/><path fill="#000000" d="M 131.304688 281.964844 L 125.40625 281.964844 C 125.191406 281.964844 125.019531 281.792969 125.019531 281.582031 C 125.019531 281.367188 125.191406 281.195312 125.40625 281.195312 L 131.304688 281.195312 C 131.519531 281.195312 131.691406 281.367188 131.691406 281.582031 C 131.691406 281.792969 131.519531 281.964844 131.304688 281.964844 " fill-opacity="1" fill-rule="nonzero"/><path fill="#ffffff" d="M 114.621094 265.722656 L 115.917969 277.191406 L 121.140625 275.757812 L 120.738281 265.425781 L 114.621094 265.722656 " fill-opacity="1" fill-rule="nonzero"/><path fill="#000000" d="M 115.050781 266.085938 L 116.25 276.699219 L 120.742188 275.464844 L 120.367188 265.828125 Z M 115.917969 277.578125 C 115.84375 277.578125 115.765625 277.554688 115.703125 277.511719 C 115.609375 277.449219 115.546875 277.347656 115.535156 277.234375 L 114.238281 265.765625 C 114.222656 265.660156 114.257812 265.550781 114.328125 265.472656 C 114.394531 265.390625 114.496094 265.339844 114.601562 265.335938 L 120.71875 265.039062 C 120.824219 265.035156 120.921875 265.070312 121 265.140625 C 121.074219 265.210938 121.121094 265.304688 121.125 265.410156 L 121.527344 275.742188 C 121.53125 275.921875 121.414062 276.082031 121.242188 276.132812 L 116.019531 277.5625 C 115.988281 277.574219 115.953125 277.578125 115.917969 277.578125 " fill-opacity="1" fill-rule="nonzero"/><path fill="#99b9ff" d="M 115.425781 285.640625 L 123.6875 285.640625 C 124.804688 285.640625 125.664062 284.648438 125.5 283.542969 C 125.222656 281.675781 124.324219 278.582031 121.632812 274.320312 C 121.339844 273.855469 120.824219 273.574219 120.273438 273.574219 L 117.761719 273.574219 C 117.328125 273.574219 116.964844 273.902344 116.921875 274.332031 L 116.730469 276.144531 L 115.636719 274.703125 C 115.636719 274.703125 113.683594 278.816406 113.59375 283.773438 C 113.574219 284.800781 114.402344 285.640625 115.425781 285.640625 " fill-opacity="1" fill-rule="nonzero"/><path fill="#000000" d="M 115.730469 275.464844 C 115.203125 276.769531 114.046875 280.050781 113.980469 283.78125 C 113.972656 284.171875 114.117188 284.539062 114.394531 284.820312 C 114.667969 285.097656 115.035156 285.253906 115.425781 285.253906 L 123.6875 285.253906 C 124.109375 285.253906 124.507812 285.070312 124.785156 284.75 C 125.058594 284.433594 125.179688 284.015625 125.117188 283.597656 C 124.851562 281.789062 123.972656 278.742188 121.304688 274.527344 C 121.085938 274.179688 120.6875 273.960938 120.273438 273.960938 L 117.761719 273.960938 C 117.527344 273.960938 117.328125 274.136719 117.304688 274.371094 L 117.113281 276.1875 C 117.097656 276.34375 116.988281 276.476562 116.832031 276.519531 C 116.679688 276.5625 116.519531 276.507812 116.421875 276.378906 Z M 123.6875 286.027344 L 115.425781 286.027344 C 114.824219 286.027344 114.261719 285.789062 113.84375 285.363281 C 113.421875 284.933594 113.195312 284.367188 113.207031 283.765625 C 113.296875 278.78125 115.207031 274.707031 115.289062 274.535156 C 115.34375 274.414062 115.460938 274.332031 115.597656 274.316406 C 115.730469 274.304688 115.863281 274.359375 115.945312 274.46875 L 116.449219 275.132812 L 116.535156 274.292969 C 116.601562 273.664062 117.128906 273.1875 117.761719 273.1875 L 120.273438 273.1875 C 120.960938 273.1875 121.589844 273.535156 121.957031 274.117188 C 124.695312 278.445312 125.601562 281.601562 125.882812 283.488281 C 125.976562 284.121094 125.789062 284.769531 125.367188 285.257812 C 124.945312 285.746094 124.332031 286.027344 123.6875 286.027344 " fill-opacity="1" fill-rule="nonzero"/><path fill="#000000" d="M 124.699219 284.050781 L 114.8125 284.050781 C 114.597656 284.050781 114.425781 283.878906 114.425781 283.664062 C 114.425781 283.453125 114.597656 283.277344 114.8125 283.277344 L 124.699219 283.277344 C 124.914062 283.277344 125.085938 283.453125 125.085938 283.664062 C 125.085938 283.878906 124.914062 284.050781 124.699219 284.050781 " fill-opacity="1" fill-rule="nonzero"/><path fill="#000000" d="M 134.230469 196.847656 C 134.011719 196.320312 133.574219 195.914062 133.03125 195.742188 C 130.007812 194.792969 119.476562 192.296875 108.636719 199.25 C 108.125 199.578125 107.796875 200.128906 107.753906 200.738281 C 107.359375 206.246094 105.898438 235.058594 115.011719 269.171875 L 121.148438 268.734375 L 122.398438 210.40625 C 122.398438 210.40625 131.492188 231.789062 124.097656 265.820312 L 130.484375 267 C 130.484375 267 139.824219 254.710938 141.496094 235.9375 C 142.976562 219.324219 135.886719 200.882812 134.230469 196.847656 " fill-opacity="1" fill-rule="nonzero"/><path fill="#ffffff" d="M 116.574219 242.207031 C 116.570312 242.207031 116.5625 242.207031 116.558594 242.207031 C 110.757812 241.957031 110.105469 234.09375 110.097656 234.015625 C 110.082031 233.800781 110.242188 233.617188 110.453125 233.601562 C 110.671875 233.585938 110.851562 233.746094 110.867188 233.957031 C 110.875 234.03125 111.476562 241.214844 116.589844 241.433594 C 116.804688 241.445312 116.96875 241.625 116.960938 241.835938 C 116.953125 242.046875 116.78125 242.207031 116.574219 242.207031 " fill-opacity="1" fill-rule="nonzero"/><path fill="#ffffff" d="M 122.933594 216.140625 C 122.726562 216.140625 122.554688 215.976562 122.546875 215.765625 L 122.332031 208.472656 C 122.328125 208.339844 122.390625 208.21875 122.496094 208.144531 L 126.320312 205.453125 C 126.496094 205.332031 126.738281 205.371094 126.859375 205.546875 C 126.980469 205.71875 126.941406 205.960938 126.765625 206.085938 L 123.109375 208.65625 L 123.320312 215.742188 C 123.328125 215.957031 123.160156 216.136719 122.945312 216.140625 C 122.941406 216.140625 122.9375 216.140625 122.933594 216.140625 " fill-opacity="1" fill-rule="nonzero"/><path fill="#000000" d="M 120.050781 144.957031 C 122.386719 142.949219 122.917969 142.675781 123.597656 141.523438 C 124.152344 140.585938 125.390625 138.492188 124.550781 136.277344 C 123.828125 134.359375 121.828125 133.203125 119.988281 133.105469 C 118.339844 133.015625 117.132812 133.796875 116.496094 134.210938 C 116.21875 134.390625 113.761719 136.027344 113.277344 138.707031 C 113.144531 139.433594 113.242188 139.765625 112.910156 140.222656 C 112.164062 141.246094 110.816406 140.726562 109.878906 141.574219 C 108.703125 142.644531 109.25 144.921875 109.296875 145.101562 C 109.90625 147.527344 112.53125 149.136719 114.667969 148.914062 C 115.902344 148.785156 115.769531 148.636719 120.050781 144.957031 " fill-opacity="1" fill-rule="nonzero"/><path fill="#ffffff" d="M 113.621094 156.96875 C 114.746094 156.21875 115.40625 154.941406 115.375 153.589844 L 115.246094 147.972656 C 115.207031 147.9375 115.171875 147.902344 115.132812 147.867188 C 115.132812 147.867188 112.882812 148.015625 112.558594 146.871094 C 112.230469 145.726562 113.820312 145.507812 113.820312 145.507812 C 113.820312 145.507812 112.316406 142.347656 116.203125 142.382812 C 117.246094 142.394531 117.617188 140.664062 119.328125 140.273438 C 119.328125 140.273438 120.175781 140.203125 121.035156 142.421875 L 122.914062 145.207031 L 121.976562 145.722656 C 122.207031 146.777344 122.304688 147.945312 122.164062 149.183594 C 122.121094 149.539062 121.878906 149.835938 121.535156 149.945312 C 121.253906 150.039062 120.875 150.136719 120.425781 150.1875 L 120.726562 153.945312 C 120.859375 155.59375 121.722656 157.089844 123.074219 158.039062 C 124.378906 158.953125 125.582031 159.601562 125.582031 159.601562 C 125.582031 159.601562 118.65625 160.546875 110.691406 158.730469 C 110.691406 158.730469 112.230469 157.886719 113.621094 156.96875 " fill-opacity="1" fill-rule="nonzero"/><path fill="#000000" d="M 119.363281 140.660156 Z M 113.621094 156.96875 Z M 111.765625 158.5625 C 117.265625 159.679688 122.179688 159.5 124.347656 159.332031 C 123.921875 159.070312 123.394531 158.734375 122.851562 158.355469 C 121.398438 157.332031 120.484375 155.738281 120.34375 153.976562 L 120.039062 150.21875 C 120.023438 150.011719 120.175781 149.828125 120.378906 149.804688 C 120.738281 149.761719 121.085938 149.6875 121.417969 149.578125 C 121.613281 149.515625 121.757812 149.34375 121.78125 149.136719 C 121.90625 148.050781 121.84375 146.929688 121.597656 145.800781 C 121.5625 145.636719 121.640625 145.464844 121.789062 145.382812 L 122.355469 145.070312 L 120.714844 142.640625 C 120.699219 142.617188 120.683594 142.589844 120.675781 142.5625 C 120.046875 140.941406 119.476562 140.699219 119.355469 140.667969 C 118.601562 140.855469 118.152344 141.351562 117.71875 141.828125 C 117.296875 142.292969 116.855469 142.78125 116.199219 142.769531 C 115.128906 142.753906 114.421875 143 114.113281 143.484375 C 113.652344 144.207031 114.164062 145.332031 114.167969 145.339844 C 114.222656 145.453125 114.21875 145.582031 114.160156 145.691406 C 114.101562 145.800781 113.996094 145.871094 113.871094 145.890625 C 113.699219 145.914062 113.152344 146.050781 112.964844 146.34375 C 112.917969 146.417969 112.863281 146.539062 112.929688 146.765625 C 113.125 147.453125 114.605469 147.515625 115.109375 147.480469 C 115.21875 147.476562 115.320312 147.511719 115.398438 147.585938 L 115.507812 147.691406 C 115.585938 147.761719 115.628906 147.859375 115.632812 147.964844 L 115.761719 153.582031 C 115.796875 155.082031 115.074219 156.46875 113.832031 157.289062 C 113.109375 157.769531 112.335938 158.230469 111.765625 158.5625 Z M 120.960938 160.226562 C 118.214844 160.226562 114.523438 160 110.605469 159.105469 C 110.449219 159.070312 110.332031 158.941406 110.3125 158.78125 C 110.289062 158.621094 110.367188 158.46875 110.507812 158.390625 C 110.523438 158.382812 112.046875 157.546875 113.40625 156.644531 C 114.425781 155.972656 115.015625 154.832031 114.988281 153.597656 L 114.867188 148.261719 C 114.859375 148.261719 114.851562 148.261719 114.84375 148.261719 C 114.132812 148.261719 112.515625 148.132812 112.1875 146.976562 C 112.074219 146.589844 112.121094 146.226562 112.320312 145.921875 C 112.5625 145.546875 112.980469 145.34375 113.308594 145.234375 C 113.148438 144.707031 112.992188 143.804688 113.464844 143.070312 C 113.925781 142.34375 114.847656 141.984375 116.207031 141.996094 C 116.207031 141.996094 116.210938 141.996094 116.210938 141.996094 C 116.507812 141.996094 116.761719 141.734375 117.148438 141.308594 C 117.621094 140.785156 118.214844 140.132812 119.246094 139.898438 C 119.261719 139.894531 119.28125 139.890625 119.296875 139.890625 C 119.488281 139.867188 120.46875 139.914062 121.378906 142.242188 L 123.234375 144.988281 C 123.292969 145.078125 123.316406 145.191406 123.289062 145.296875 C 123.261719 145.402344 123.195312 145.492188 123.097656 145.542969 L 122.410156 145.921875 C 122.625 147.035156 122.671875 148.148438 122.546875 149.226562 C 122.488281 149.730469 122.140625 150.160156 121.65625 150.316406 C 121.390625 150.402344 121.117188 150.46875 120.839844 150.515625 L 121.113281 153.914062 C 121.238281 155.445312 122.03125 156.835938 123.296875 157.722656 C 124.566406 158.613281 125.753906 159.253906 125.765625 159.257812 C 125.914062 159.339844 125.992188 159.503906 125.960938 159.667969 C 125.933594 159.832031 125.800781 159.960938 125.632812 159.980469 C 125.597656 159.988281 123.78125 160.226562 120.960938 160.226562 " fill-opacity="1" fill-rule="nonzero"/><path fill="#ffffff" d="M 120.425781 150.1875 C 120.425781 150.1875 117.960938 150.273438 116.980469 148.933594 L 120.425781 150.1875 " fill-opacity="1" fill-rule="nonzero"/><path fill="#000000" d="M 120.324219 150.574219 C 119.800781 150.574219 117.640625 150.492188 116.671875 149.160156 C 116.542969 148.988281 116.582031 148.746094 116.753906 148.621094 C 116.925781 148.496094 117.167969 148.535156 117.292969 148.707031 C 117.996094 149.667969 119.78125 149.824219 120.410156 149.804688 C 120.632812 149.789062 120.804688 149.960938 120.8125 150.175781 C 120.820312 150.386719 120.652344 150.566406 120.4375 150.574219 C 120.425781 150.574219 120.386719 150.574219 120.324219 150.574219 " fill-opacity="1" fill-rule="nonzero"/><path fill="#000000" d="M 165.988281 190.675781 L 142.410156 190.675781 L 159.890625 163.78125 C 160.4375 162.941406 161.386719 162.433594 162.410156 162.433594 L 181.546875 162.433594 C 182.761719 162.433594 183.5 163.734375 182.851562 164.730469 L 165.988281 190.675781 " fill-opacity="1" fill-rule="nonzero"/><path fill="#caddff" d="M 171.019531 171.863281 C 170.253906 173.039062 168.605469 173.996094 167.339844 173.996094 C 166.074219 173.996094 165.667969 173.039062 166.433594 171.863281 C 167.199219 170.683594 168.847656 169.726562 170.113281 169.726562 C 171.378906 169.726562 171.785156 170.683594 171.019531 171.863281 " fill-opacity="1" fill-rule="nonzero"/><path fill="#000000" d="M 165.316406 192.917969 L 122.703125 192.917969 C 122.28125 192.917969 121.941406 192.578125 121.941406 192.160156 L 121.941406 190.480469 L 166.074219 190.480469 L 166.074219 192.160156 C 166.074219 192.578125 165.734375 192.917969 165.316406 192.917969 " fill-opacity="1" fill-rule="nonzero"/><path fill="#ffffff" d="M 164.761719 191.085938 L 144.511719 191.085938 C 144.300781 191.085938 144.125 190.914062 144.125 190.699219 C 144.125 190.484375 144.300781 190.3125 144.511719 190.3125 L 164.761719 190.3125 C 164.976562 190.3125 165.148438 190.484375 165.148438 190.699219 C 165.148438 190.914062 164.976562 191.085938 164.761719 191.085938 " fill-opacity="1" fill-rule="nonzero"/><path fill="#5479f7" d="M 256.457031 269.457031 L 274.65625 269.457031 C 274.65625 269.457031 277.152344 284.636719 266.289062 285.847656 C 255.429688 287.058594 256.457031 269.457031 256.457031 269.457031 " fill-opacity="1" fill-rule="nonzero"/><path fill="#99b9ff" d="M 261.914062 265.746094 C 260.617188 265.78125 257.84375 265.824219 255.234375 264.046875 C 254.269531 263.390625 251.621094 261.582031 251.867188 259.207031 C 252.078125 257.171875 254.359375 255.296875 257.457031 254.957031 C 253.785156 255.394531 250.828125 252.640625 250.824219 249.796875 C 250.820312 247.617188 252.546875 245.449219 255.101562 244.734375 C 251.144531 241.742188 249.0625 236.917969 249.722656 232.132812 C 250.363281 227.476562 253.585938 222.894531 258.449219 221.480469 C 259.0625 221.300781 264.347656 219.851562 268.15625 223.097656 C 271.347656 225.820312 271.386719 230.046875 271.410156 232.925781 C 271.453125 238.050781 269.398438 241.945312 268.15625 243.902344 C 268.414062 243.882812 271.042969 243.019531 273.496094 245.203125 C 276 247.425781 276.121094 252.535156 274.902344 254.558594 C 273.625 256.675781 270.550781 256.226562 270.003906 256.382812 C 272.304688 258.414062 272.222656 260.109375 272.199219 260.429688 C 271.9375 263.734375 265.945312 265.628906 261.914062 265.746094 " fill-opacity="1" fill-rule="nonzero"/><path fill="#ffffff" d="M 263.230469 268.148438 C 263.214844 268.148438 263.195312 268.148438 263.179688 268.144531 C 262.96875 268.117188 262.820312 267.921875 262.847656 267.710938 C 265.164062 250.597656 259.75 231.277344 259.695312 231.085938 C 259.636719 230.878906 259.753906 230.664062 259.960938 230.609375 C 260.167969 230.550781 260.378906 230.667969 260.4375 230.875 C 260.496094 231.066406 265.953125 250.539062 263.613281 267.816406 C 263.585938 268.007812 263.421875 268.148438 263.230469 268.148438 " fill-opacity="1" fill-rule="nonzero"/><path fill="#99b9ff" d="M 265.851562 266.535156 C 265.4375 265.523438 263.648438 260.855469 265.96875 256.917969 C 266.445312 256.109375 268.042969 253.402344 270.359375 253.59375 C 272.089844 253.734375 273.179688 255.402344 273.421875 255.792969 C 272.722656 253.253906 273.972656 250.683594 276.058594 249.792969 C 278.523438 248.746094 281.800781 250.195312 282.707031 253.238281 C 283.3125 253.0625 284.960938 252.6875 286.625 253.472656 C 288.808594 254.507812 290.125 257.125 289.828125 260.003906 C 288.914062 263.09375 286.09375 264.988281 283.417969 264.636719 C 280.511719 264.253906 279.121094 261.398438 279.027344 261.191406 C 279.480469 261.90625 280.144531 263.230469 279.738281 264.515625 C 279.054688 266.679688 275.652344 267.753906 273.210938 267.128906 C 270.941406 266.550781 270.285156 264.707031 268.460938 264.871094 C 267.257812 264.980469 266.367188 265.886719 265.851562 266.535156 " fill-opacity="1" fill-rule="nonzero"/><path fill="#caddff" d="M 265.667969 267.953125 C 265.648438 267.953125 265.625 267.953125 265.601562 267.949219 C 265.390625 267.910156 265.25 267.710938 265.289062 267.5 C 265.339844 267.203125 266.644531 260.230469 273.15625 257.753906 C 277.835938 255.972656 282.035156 257.75 283.210938 258.339844 C 283.402344 258.433594 283.480469 258.664062 283.382812 258.855469 C 283.289062 259.046875 283.054688 259.125 282.867188 259.03125 C 281.761719 258.476562 277.816406 256.808594 273.429688 258.476562 C 267.324219 260.800781 266.097656 267.355469 266.046875 267.632812 C 266.015625 267.820312 265.851562 267.953125 265.667969 267.953125 " fill-opacity="1" fill-rule="nonzero"/><path fill="#99b9ff" d="M 115.183594 113.320312 L 84.511719 112.847656 C 83.03125 112.824219 81.816406 113.949219 81.792969 115.359375 L 81.605469 127.476562 C 81.585938 128.886719 82.765625 130.050781 84.246094 130.074219 L 107.210938 130.429688 L 113.832031 135.4375 L 113.90625 130.53125 L 114.917969 130.546875 C 116.394531 130.570312 117.613281 129.445312 117.632812 128.03125 L 117.820312 115.917969 C 117.84375 114.507812 116.664062 113.34375 115.183594 113.320312 " fill-opacity="1" fill-rule="nonzero"/><path fill="#5479f7" d="M 85.882812 122.191406 L 83.765625 121.582031 L 84.144531 120.410156 L 86.242188 121.21875 L 86.136719 118.835938 L 87.378906 118.835938 L 87.277344 121.261719 L 89.335938 120.464844 L 89.710938 121.65625 L 87.5625 122.269531 L 88.949219 124.117188 L 87.941406 124.851562 L 86.691406 122.851562 L 85.457031 124.789062 L 84.445312 124.082031 L 85.882812 122.191406 " fill-opacity="1" fill-rule="nonzero"/><path fill="#5479f7" d="M 92.164062 122.191406 L 90.046875 121.582031 L 90.429688 120.410156 L 92.523438 121.21875 L 92.417969 118.835938 L 93.664062 118.835938 L 93.558594 121.261719 L 95.621094 120.464844 L 95.996094 121.65625 L 93.84375 122.269531 L 95.230469 124.117188 L 94.226562 124.851562 L 92.976562 122.851562 L 91.738281 124.789062 L 90.726562 124.082031 L 92.164062 122.191406 " fill-opacity="1" fill-rule="nonzero"/><path fill="#5479f7" d="M 98.445312 122.191406 L 96.328125 121.582031 L 96.710938 120.410156 L 98.804688 121.21875 L 98.703125 118.835938 L 99.945312 118.835938 L 99.839844 121.261719 L 101.902344 120.464844 L 102.277344 121.65625 L 100.125 122.269531 L 101.511719 124.117188 L 100.507812 124.851562 L 99.257812 122.851562 L 98.019531 124.789062 L 97.007812 124.082031 L 98.445312 122.191406 " fill-opacity="1" fill-rule="nonzero"/><path fill="#5479f7" d="M 104.726562 122.191406 L 102.609375 121.582031 L 102.992188 120.410156 L 105.085938 121.21875 L 104.984375 118.835938 L 106.226562 118.835938 L 106.121094 121.261719 L 108.183594 120.464844 L 108.558594 121.65625 L 106.40625 122.269531 L 107.796875 124.117188 L 106.789062 124.851562 L 105.539062 122.851562 L 104.304688 124.789062 L 103.289062 124.082031 L 104.726562 122.191406 " fill-opacity="1" fill-rule="nonzero"/><path fill="#5479f7" d="M 111.007812 122.191406 L 108.890625 121.582031 L 109.273438 120.410156 L 111.371094 121.21875 L 111.265625 118.835938 L 112.507812 118.835938 L 112.402344 121.261719 L 114.464844 120.464844 L 114.839844 121.65625 L 112.6875 122.269531 L 114.078125 124.117188 L 113.070312 124.851562 L 111.820312 122.851562 L 110.585938 124.789062 L 109.570312 124.082031 L 111.007812 122.191406 " fill-opacity="1" fill-rule="nonzero"/></svg>